<svg width="53" height="42" viewBox="0 0 53 42" fill="none" xmlns="http://www.w3.org/2000/svg">
<path d="M52.8702 5.65847C52.6499 4.54527 52.1532 3.49313 51.4286 2.60859C51.2814 2.42288 51.1275 2.25767 50.9592 2.09008C49.67 0.794066 47.8767 0.0507202 46.039 0.0507202H6.9608C5.1026 0.0507202 3.35494 0.77533 2.03978 2.09081C1.87332 2.25685 1.71898 2.42371 1.56619 2.61532C0.844688 3.49613 0.350193 4.54682 0.135191 5.66158C0.0453398 6.09935 0 6.55295 0 7.01183V34.4577C0 35.4125 0.193988 36.3423 0.578549 37.2262C0.911352 38.0111 1.4163 38.7553 2.03936 39.3781C2.19629 39.5343 2.35219 39.6784 2.51864 39.8188C3.76435 40.8505 5.34172 41.4182 6.9608 41.4182H46.039C47.6685 41.4182 49.2444 40.8483 50.4867 39.8074C50.6528 39.6731 50.8067 39.532 50.9606 39.3781C51.5629 38.7764 52.0415 38.0852 52.3856 37.3229L52.431 37.2142C52.8084 36.347 53 35.4202 53 34.4578V7.01183C53 6.55895 52.9563 6.10235 52.8702 5.65847ZM3.60472 4.4932C3.70317 4.3491 3.82884 4.20118 3.98918 4.03959C4.78511 3.24407 5.84066 2.80631 6.9607 2.80631H46.0389C47.1688 2.80631 48.2246 3.2448 49.0117 4.04114C49.1477 4.17851 49.2775 4.33099 49.3907 4.48336L49.6896 4.885L28.8312 23.064C28.1881 23.6278 27.3602 23.938 26.4997 23.938C25.6477 23.938 24.8205 23.6285 24.1698 23.0647L3.33217 4.89018L3.60472 4.4932ZM2.76956 34.7C2.75828 34.6253 2.75569 34.5422 2.75569 34.4577V7.58014L18.9424 21.7008L2.91904 35.6714L2.76956 34.7ZM48.1243 38.1084C47.4978 38.4699 46.7763 38.6616 46.039 38.6616H6.9608C6.22305 38.6616 5.50186 38.4699 4.87579 38.1084L4.22075 37.7288L20.7766 23.3008L22.591 24.879C23.6794 25.8239 25.0673 26.3448 26.4999 26.3448C27.9377 26.3448 29.3279 25.8239 30.4156 24.879L32.2293 23.3001L48.7795 37.7296L48.1243 38.1084ZM50.2436 34.4577C50.2436 34.5408 50.242 34.623 50.2316 34.6962L50.0881 35.6767L34.0579 21.7084L50.2436 7.58697V34.4577Z" fill="black"/>
</svg>
