<svg width="56" height="55" viewBox="0 0 56 55" fill="none" xmlns="http://www.w3.org/2000/svg">
<path d="M27.8917 0C12.4895 0 0 12.4873 0 27.8917C0 40.2152 7.99181 50.6702 19.0741 54.3583C20.468 54.6164 20.9799 53.7532 20.9799 53.0165C20.9799 52.3515 20.9538 50.1541 20.942 47.8236C13.1823 49.5108 11.545 44.5327 11.545 44.5327C10.2762 41.3087 8.44812 40.4517 8.44812 40.4517C5.91763 38.7205 8.63888 38.7559 8.63888 38.7559C11.4398 38.9528 12.9146 41.6303 12.9146 41.6303C15.4022 45.8944 19.4394 44.6615 21.0311 43.9491C21.2813 42.1461 22.0043 40.9159 22.8018 40.2194C16.6068 39.5139 10.0942 37.1223 10.0942 26.4351C10.0942 23.3901 11.1838 20.9018 12.9682 18.9486C12.6785 18.2459 11.7239 15.4092 13.2383 11.5673C13.2383 11.5673 15.5805 10.8176 20.9105 14.4263C23.1352 13.8082 25.5213 13.4984 27.8917 13.4879C30.2621 13.4984 32.65 13.8082 34.879 14.4263C40.2028 10.8176 42.5416 11.5673 42.5416 11.5673C44.0598 15.4092 43.1047 18.2459 42.8151 18.9486C44.6033 20.9018 45.6855 23.3898 45.6855 26.4351C45.6855 37.1477 39.1606 39.5067 32.9499 40.1971C33.9502 41.0627 34.8416 42.7602 34.8416 45.3622C34.8416 49.0941 34.8093 52.0977 34.8093 53.0165C34.8093 53.7587 35.3113 54.6284 36.7253 54.3546C47.8015 50.6623 55.7832 40.2111 55.7832 27.8917C55.7832 12.4873 43.2954 0 27.8917 0Z" fill="#161614"/>
<path d="M10.4464 39.7324C10.3851 39.8709 10.1668 39.9125 9.96841 39.8175C9.76607 39.7265 9.65232 39.5375 9.71795 39.3984C9.7781 39.2558 9.99641 39.216 10.1983 39.3118C10.4011 39.4026 10.5166 39.5933 10.4464 39.7324ZM11.8184 40.9566C11.6854 41.0799 11.4253 41.0226 11.2488 40.8277C11.0663 40.6332 11.0322 40.3734 11.1672 40.248C11.3043 40.1249 11.5565 40.1824 11.7394 40.3771C11.9219 40.5737 11.9573 40.8321 11.8182 40.9568M12.7597 42.5228C12.5886 42.6416 12.309 42.5302 12.1364 42.2822C11.9656 42.0343 11.9656 41.7368 12.1402 41.6176C12.3134 41.4984 12.5886 41.6056 12.7636 41.8517C12.9342 42.1039 12.9342 42.4014 12.7594 42.523M14.3513 44.3369C14.1984 44.5053 13.8729 44.4603 13.6344 44.2302C13.3908 44.0053 13.3227 43.6861 13.4761 43.5175C13.6307 43.3486 13.9582 43.3961 14.1984 43.6242C14.4405 43.8486 14.5143 44.1702 14.3513 44.3369ZM16.4084 44.9494C16.3413 45.1677 16.0276 45.267 15.7117 45.1743C15.3963 45.0787 15.1898 44.8227 15.2534 44.602C15.319 44.3822 15.634 44.2787 15.9523 44.378C16.2673 44.4732 16.474 44.7271 16.4084 44.9494ZM18.7499 45.2091C18.7578 45.4392 18.4898 45.6299 18.1582 45.6341C17.8246 45.6413 17.5549 45.4552 17.5514 45.229C17.5514 44.9966 17.8132 44.8076 18.1466 44.8022C18.4782 44.7956 18.7499 44.9805 18.7499 45.2091ZM21.0499 45.1209C21.0897 45.3453 20.8591 45.5759 20.5299 45.6371C20.2061 45.6962 19.9064 45.5577 19.8651 45.3353C19.8249 45.1051 20.0598 44.8748 20.3829 44.8151C20.7128 44.7578 21.0079 44.8927 21.0499 45.1209Z" fill="#161614"/>
</svg>
