<svg width="52" height="52" viewBox="0 0 52 52" fill="none" xmlns="http://www.w3.org/2000/svg">
<path d="M13.1667 16.9011C15.0997 16.9011 16.6667 15.3341 16.6667 13.4011C16.6667 11.4681 15.0997 9.90106 13.1667 9.90106C11.2337 9.90106 9.66669 11.4681 9.66669 13.4011C9.66669 15.3341 11.2337 16.9011 13.1667 16.9011Z" fill="#0F0F0F"/>
<path d="M9.66669 21.5677C9.66669 20.2791 10.7114 19.2344 12 19.2344H14.3334C15.622 19.2344 16.6667 20.279 16.6667 21.5677V40.2344C16.6667 41.5231 15.622 42.5677 14.3334 42.5677H12C10.7114 42.5677 9.66669 41.5231 9.66669 40.2344V21.5677Z" fill="#0F0F0F"/>
<path d="M23.6666 42.5677H26C27.2887 42.5677 28.3333 41.5231 28.3333 40.2344V29.7344C28.3333 26.2344 35.3333 23.901 35.3333 28.5677V40.2353C35.3333 41.524 36.3779 42.5677 37.6666 42.5677H40C41.2887 42.5677 42.3333 41.5231 42.3333 40.2344V26.2344C42.3333 21.5677 38.8333 19.2344 34.1666 19.2344C29.5 19.2344 28.3333 22.7344 28.3333 22.7344V21.5677C28.3333 20.279 27.2887 19.2344 26 19.2344H23.6666C22.3779 19.2344 21.3333 20.2791 21.3333 21.5677V40.2344C21.3333 41.5231 22.3779 42.5677 23.6666 42.5677Z" fill="#0F0F0F"/>
<path fill-rule="evenodd" clip-rule="evenodd" d="M44.6666 0.567688C48.5327 0.567688 51.6666 3.7017 51.6666 7.56769V44.901C51.6666 48.7671 48.5327 51.901 44.6666 51.901H7.33331C3.46733 51.901 0.333313 48.7671 0.333313 44.901V7.56769C0.333313 3.7017 3.46733 0.567688 7.33331 0.567688H44.6666ZM44.6666 5.23435C45.9553 5.23435 47 6.27903 47 7.56769V44.901C47 46.1897 45.9553 47.2344 44.6666 47.2344H7.33331C6.04466 47.2344 4.99998 46.1897 4.99998 44.901V7.56769C4.99998 6.27903 6.04466 5.23435 7.33331 5.23435H44.6666Z" fill="#0F0F0F"/>
</svg>
